<?xml version="1.0" encoding="UTF-8"?>
<svg width="15px" height="16px" viewBox="0 0 15 16" version="1.1" xmlns="http://www.w3.org/2000/svg" xmlns:xlink="http://www.w3.org/1999/xlink">
    <!-- Generator: Sketch 61.2 (89653) - https://sketch.com -->
    <title>Group 14</title>
    <desc>Created with Sketch.</desc>
    <g id="Page-1" stroke="none" stroke-width="1" fill="none" fill-rule="evenodd">
        <g id="detail_togashi_chart_日付なし" transform="translate(-222.000000, -455.000000)">
            <rect fill="#FFFFFF" x="0" y="0" width="375" height="1645"></rect>
            <g id="Group-14" transform="translate(222.000000, 455.000000)" fill="#9B9B9B" fill-rule="nonzero">
                <g id="1497619953-jd27_85177-2">
                    <g id="1497619953-jd27_85177">
                        <g id="Group-8">
                            <g id="Group-2">
                                <path d="M6.956408,10.535056 C9.122896,10.485816 10.304624,7.039128 10.304624,7.039128 C11.150264,6.700872 11.560432,5.125432 10.953752,4.432168 C10.770184,4.222408 10.25736,3.864232 10.25736,3.864232 C10.292816,3.698792 10.304632,3.521536 10.304632,3.344272 C10.304632,1.500784 8.803848,-1.43884904e-13 6.96036,-1.43884904e-13 C5.105056,-1.43884904e-13 3.604272,1.500784 3.604272,3.344272 C3.604272,3.521528 3.616088,3.698792 3.651544,3.864232 C3.424096,4.023272 3.142656,4.222416 2.959088,4.432168 C2.3524,5.125432 2.762568,6.700872 3.608216,7.039128 C3.608192,7.039128 4.78992,10.485816 6.956408,10.535056" id="Path"></path>
                                <path d="M0.70904,12.69144 L1.016288,12.514184 L3.911512,10.800688 C4.927792,11.876056 5.955888,12.3842 7.007624,12.3842 C8.082992,12.3842 9.181992,11.840608 10.304632,10.800688 L13.637088,12.502368 L13.814344,12.585088 C14.34612,12.868704 14.712456,13.424112 14.712456,14.06224 C14.712456,14.983984 13.956152,15.740288 13.034408,15.740288 L1.666232,15.740288 C0.744488,15.740288 1.0125234e-13,14.983984 1.0125234e-13,14.06224 C1.0125234e-13,13.495008 0.283616,12.998688 0.70904,12.69144 L1.016288,12.514184" id="Path"></path>
                            </g>
                        </g>
                    </g>
                </g>
            </g>
        </g>
    </g>
</svg>
