
<svg width="12px" height="12px" viewBox="0 0 12 12" version="1.1" xmlns="http://www.w3.org/2000/svg" xmlns:xlink="http://www.w3.org/1999/xlink">
    <defs>
        <linearGradient x1="100%" y1="50%" x2="-2.22044605e-14%" y2="50%" id="linearGradient-1">
            <stop stop-color="#FE8691" offset="0%"></stop>
            <stop stop-color="#9F041B" offset="100%"></stop>
        </linearGradient>
    </defs>
    <g id="Page-1" stroke="none" stroke-width="1" fill="none" fill-rule="evenodd">
        <g id="detail_togashi_chart_日付hover" transform="translate(-228.000000, -330.000000)" fill="url(#linearGradient-1)" fill-rule="nonzero">
            <g id="Group-18" transform="translate(15.000000, 291.000000)">
                <g id="Group-12" transform="translate(12.000000, 8.000000)">
                    <g id="Group-11">
                        <g id="Group-5" transform="translate(108.000000, 25.000000)">
                            <g id="矢印アイコン-左1-copy-2" transform="translate(99.000000, 12.000000) rotate(90.000000) translate(-99.000000, -12.000000) translate(93.000000, 6.000000)">
                                <path d="M10.6384094,4.46336842 L5.28902924,4.46336842 L7.54659649,2.31487719 C8.08203509,1.80573099 8.10336842,0.95871345 7.5937076,0.423017544 C7.0842807,-0.112421053 6.23754386,-0.133239766 5.70210526,0.376163743 L0,5.80130994 L5.70212865,11.2261988 C6.23756725,11.7358596 7.08430409,11.7145029 7.59373099,11.1790643 C8.10339181,10.6439064 8.08203509,9.79663158 7.54661988,9.28774269 L5.28905263,7.13925146 L10.6384561,7.13925146 C11.377731,7.13925146 11.976655,6.5405614 11.976655,5.80128655 C11.9766082,5.06205848 11.3776842,4.46336842 10.6384094,4.46336842 Z" id="Path"></path>
                            </g>
                        </g>
                    </g>
                </g>
            </g>
        </g>
    </g>
</svg>
